<?xml version="1.0" encoding="UTF-8"?>
<svg width="19px" height="21px" viewBox="0 0 19 21" version="1.1" xmlns="http://www.w3.org/2000/svg" xmlns:xlink="http://www.w3.org/1999/xlink">
    <!-- Generator: sketchtool 54.1 (76490) - https://sketchapp.com -->
    <title>FDD4C598-1E7A-4C4A-9341-E0F0215CDA10</title>
    <desc>Created with sketchtool.</desc>
    <g id="Page-1" stroke="none" stroke-width="1" fill="none" fill-rule="evenodd">
        <g id="Dashboard" transform="translate(-1082.000000, -28.000000)">
            <g id="Header" transform="translate(113.800000, 23.600000)">
                <g id="Top-right-options" transform="translate(925.000000, 1.000000)">
                    <g id="Bell" transform="translate(44.478716, 4.869631)">
                        <path d="M13.6881843,14.354458 L0,14.354458 C1.13396632,14.354458 2.05322764,13.4351967 2.05322764,12.3012304 L2.05322764,8.87918429 C2.05322768,6.23326291 4.19817077,4.08831986 6.84409215,4.08831986 C9.49001352,4.08831986 11.6349566,6.23326291 11.6349566,8.87918429 L11.6349566,12.3012304 C11.6349566,13.4351967 12.554218,14.354458 13.6881843,14.354458 L13.6881843,14.354458 Z M8.02812009,17.0920949 C7.78324,17.5142414 7.33212287,17.7740787 6.84409215,17.7740787 C6.35606142,17.7740787 5.90494429,17.5142414 5.6600642,17.0920949 L8.02812009,17.0920949 Z" id="Bell-icon" stroke="#FFFFFF" stroke-width="1.87199993" stroke-linecap="round" stroke-linejoin="round"></path>
                        <circle id="Red-dot" stroke="#007AFF" stroke-width="1.512" fill="#4CD964" cx="11.5673106" cy="4.03129726" r="4.716"></circle>
                    </g>
                </g>
            </g>
        </g>
    </g>
</svg>