<?xml version="1.0" encoding="UTF-8"?>
<svg width="27px" height="27px" viewBox="0 0 27 27" version="1.1" xmlns="http://www.w3.org/2000/svg" xmlns:xlink="http://www.w3.org/1999/xlink">
    <!-- Generator: sketchtool 54.1 (76490) - https://sketchapp.com -->
    <title>7D7C07A5-9C38-424E-9F5E-C0A08CED6ECB</title>
    <desc>Created with sketchtool.</desc>
    <defs>
        <linearGradient x1="2.09411216e-15%" y1="50%" x2="99.9997042%" y2="50%" id="linearGradient-1">
            <stop stop-color="#00BDC7" offset="0%"></stop>
            <stop stop-color="#00FFE1" offset="100%"></stop>
        </linearGradient>
        <linearGradient x1="2.21158325e-16%" y1="50%" x2="100.000484%" y2="50%" id="linearGradient-2">
            <stop stop-color="#00D4A9" offset="0%"></stop>
            <stop stop-color="#00F2C2" offset="52.5%"></stop>
            <stop stop-color="#00FFB3" offset="100%"></stop>
        </linearGradient>
    </defs>
    <g id="Page-1" stroke="none" stroke-width="1" fill="none" fill-rule="evenodd">
        <g id="Dashboard" transform="translate(-113.000000, -25.000000)">
            <g id="Header" transform="translate(113.800000, 23.600000)">
                <g id="Logo" transform="translate(0.000000, 1.600000)">
                    <g id="Logo-mark">
                        <path d="M24.9381411,11.8100834 L18.7617518,1.11123323 C18.3741123,0.439324766 17.6505185,5.68434189e-14 16.8493969,5.68434189e-14 L4.4966182,5.68434189e-14 C4.08313606,5.68434189e-14 3.69549656,0.129213167 3.3336997,0.335954233 L3.3336997,0.361796866 C3.61796866,0.542695299 3.876395,0.801121632 4.05729343,1.11123323 L7.15840943,6.48650096 C7.44267839,6.35728779 7.77863262,6.27975989 8.08874422,6.27975989 L13.2055856,6.27975989 C14.0067073,6.27975989 14.730301,6.69324203 15.1179405,7.39099313 L17.6763612,11.8100834 C18.0640007,12.4819919 18.0640007,13.3347988 17.6763612,14.0325499 L15.1179405,18.4516402 C14.730301,19.1235486 13.9808646,19.5628734 13.2055856,19.5628734 L8.11458686,19.5628734 C7.77863262,19.5628734 7.46852103,19.4853455 7.18425206,19.3561323 L4.08313606,24.7314001 C3.90223763,25.0415117 3.6438113,25.299938 3.35954233,25.4808364 L3.35954233,25.5066791 C3.69549656,25.7134201 4.1089787,25.8426333 4.52246083,25.8426333 L16.9010822,25.8426333 C17.7022038,25.8426333 18.4257975,25.4291512 18.813437,24.7314001 L24.9898264,14.0325499 C25.3516233,13.3347988 25.3516233,12.5078345 24.9381411,11.8100834 Z" id="Path" fill="url(#linearGradient-1)"></path>
                        <path d="M10.2336828,11.8100834 L7.15840943,6.48650096 L4.05729343,1.11123323 C3.876395,0.801121632 3.61796866,0.542695299 3.3336997,0.361796866 L3.30785706,0.361796866 C2.99774546,0.542695299 2.73931913,0.801121632 2.5584207,1.13707587 L0.258426333,5.14268403 C-0.0775278999,5.71122196 -0.0775278999,6.43481569 0.258426333,7.00335363 L3.04943073,11.8359261 C3.2561718,12.1718803 3.3336997,12.5595198 3.3336997,12.9471593 C3.3336997,13.3347988 3.23032916,13.7224383 3.04943073,14.0583925 L0.258426333,18.8651223 C-0.0775278999,19.4336602 -0.0775278999,20.157254 0.258426333,20.7257919 L2.58426333,24.7572427 C2.76516176,25.0673543 3.0235881,25.3516233 3.3336997,25.5325217 L3.35954233,25.5325217 C3.66965393,25.3516233 3.90223763,25.0931969 4.08313606,24.7830853 L7.18425206,19.4078176 L10.2595254,14.0842352 C10.6471649,13.3347988 10.6471649,12.5078345 10.2336828,11.8100834 Z" id="Path" fill="url(#linearGradient-2)"></path>
                    </g>
                </g>
            </g>
        </g>
    </g>
</svg>