<?xml version="1.0" encoding="UTF-8"?>
<svg width="19px" height="20px" viewBox="0 0 19 20" version="1.1" xmlns="http://www.w3.org/2000/svg" xmlns:xlink="http://www.w3.org/1999/xlink">
    <!-- Generator: sketchtool 54.1 (76490) - https://sketchapp.com -->
    <title>C96D2815-EE16-454B-935F-32FEE5A2552C</title>
    <desc>Created with sketchtool.</desc>
    <g id="Page-1" stroke="none" stroke-width="1" fill="none" fill-rule="evenodd" opacity="0.76" stroke-linecap="round" stroke-linejoin="round">
        <g id="Dashboard" transform="translate(-139.000000, -291.000000)" stroke="#FFFFFF" stroke-width="1.512">
            <g id="Navigatonal-menu" transform="translate(115.800000, 186.200000)">
                <g id="Inventory" transform="translate(4.469639, 96.409724)">
                    <g id="package-(1)" transform="translate(20.217598, 9.704447)">
                        <path d="M8.80678583,0.36391677 L15.2764173,3.5987325 C15.8260591,3.87185609 16.173753,4.43255156 16.1740787,5.04631254 L16.1740787,12.753261 C16.173753,13.367022 15.8260591,13.9277175 15.2764173,14.2008411 L8.80678583,17.4356568 C8.35118796,17.6636381 7.81480365,17.6636381 7.35920579,17.4356568 L0.889574326,14.2008411 C0.340458214,13.9241583 -0.00427912436,13.3600427 1.06778938e-14,12.745174 L1.06778938e-14,5.04631254 C0.000325685528,4.43255156 0.348019528,3.87185609 0.897661365,3.5987325 L7.36729283,0.36391677 C7.82067864,0.138623864 8.35340002,0.138623864 8.80678583,0.36391677 Z" id="Path"></path>
                        <polyline id="Path" points="0.258785259 4.17291229 8.08703933 8.08703933 15.9152934 4.17291229"></polyline>
                        <path d="M8.08703933,17.5973976 L8.08703933,8.08703933" id="Path"></path>
                        <path d="M4.04351966,2.02175983 L12.130559,6.0652795" id="Path"></path>
                    </g>
                </g>
            </g>
        </g>
    </g>
</svg>