<?xml version="1.0" encoding="UTF-8"?>
<svg width="19px" height="18px" viewBox="0 0 19 18" version="1.1" xmlns="http://www.w3.org/2000/svg" xmlns:xlink="http://www.w3.org/1999/xlink">
    <!-- Generator: sketchtool 54.1 (76490) - https://sketchapp.com -->
    <title>67CEFBB4-A6E9-47FC-A165-B530F9871887</title>
    <desc>Created with sketchtool.</desc>
    <g id="Page-1" stroke="none" stroke-width="1" fill="none" fill-rule="evenodd" stroke-linecap="round" stroke-linejoin="round">
        <g id="Dashboard" transform="translate(-139.000000, -754.000000)" stroke="#ACACBF" stroke-width="1.512">
            <g id="Navigatonal-menu" transform="translate(115.800000, 186.200000)">
                <g id="Settings" transform="translate(4.469639, 558.179670)">
                    <g id="settings-(3)" transform="translate(20.217598, 10.513151)">
                        <circle id="Oval" cx="8.08703933" cy="8.08703933" r="2.20555618"></circle>
                        <path d="M13.5274112,10.2925955 C13.3271861,10.7462711 13.4232606,11.2761363 13.7700224,11.6306329 L13.8141335,11.674744 C14.0902354,11.9505389 14.2453737,12.3247814 14.2453737,12.7150314 C14.2453737,13.1052814 14.0902354,13.4795238 13.8141335,13.7553187 C13.5383387,14.0314206 13.1640962,14.1865588 12.7738462,14.1865588 C12.3835962,14.1865588 12.0093538,14.0314206 11.7335589,13.7553187 L11.6894478,13.7112076 C11.3349511,13.3644457 10.8050859,13.2683713 10.3514103,13.4685964 C9.90701238,13.6590596 9.61815327,14.0952369 9.61622495,14.5787264 L9.61622495,14.7037079 C9.61622495,15.5157712 8.95791752,16.1740787 8.14585416,16.1740787 C7.3337908,16.1740787 6.67548337,15.5157712 6.67548337,14.7037079 L6.67548337,14.6375412 C6.66383554,14.1395787 6.34896679,13.6993455 5.88148315,13.5274112 C5.42780754,13.3271861 4.89794238,13.4232606 4.54344573,13.7700224 L4.49933461,13.8141335 C4.22353972,14.0902354 3.84929728,14.2453737 3.45904728,14.2453737 C3.06879727,14.2453737 2.69455483,14.0902354 2.41875994,13.8141335 C2.14265807,13.5383387 1.98751981,13.1640962 1.98751981,12.7738462 C1.98751981,12.3835962 2.14265807,12.0093538 2.41875994,11.7335589 L2.46287107,11.6894478 C2.80963293,11.3349511 2.90570739,10.8050859 2.70548225,10.3514103 C2.51501903,9.90701238 2.07884177,9.61815327 1.5953523,9.61622495 L1.47037079,9.61622495 C0.658307425,9.61622495 1.6324395e-16,8.95791752 0,8.14585416 C-8.16219751e-17,7.3337908 0.658307425,6.67548337 1.47037079,6.67548337 L1.53653747,6.67548337 C2.03449999,6.66383554 2.47473316,6.34896679 2.64666742,5.88148315 C2.84689255,5.42780754 2.7508181,4.89794238 2.40405624,4.54344573 L2.35994511,4.49933461 C2.08384323,4.22353972 1.92870498,3.84929728 1.92870498,3.45904728 C1.92870498,3.06879727 2.08384323,2.69455483 2.35994511,2.41875994 C2.63574,2.14265807 3.00998244,1.98751981 3.40023244,1.98751981 C3.79048245,1.98751981 4.16472489,2.14265807 4.44051978,2.41875994 L4.4846309,2.46287107 C4.83912754,2.80963293 5.36899271,2.90570739 5.82266832,2.70548225 L5.88148315,2.70548225 C6.32588111,2.51501903 6.61474022,2.07884177 6.61666854,1.5953523 L6.61666854,1.47037079 C6.61666854,0.658307425 7.27497597,1.6324395e-16 8.08703933,0 C8.89910269,0 9.55741012,0.658307425 9.55741012,1.47037079 L9.55741012,1.53653747 C9.55933844,2.02002694 9.84819755,2.4562042 10.2925955,2.64666742 C10.7462711,2.84689255 11.2761363,2.7508181 11.6306329,2.40405624 L11.674744,2.35994511 C11.9505389,2.08384323 12.3247814,1.92870498 12.7150314,1.92870498 C13.1052814,1.92870498 13.4795238,2.08384323 13.7553187,2.35994511 C14.0314206,2.63574 14.1865588,3.00998244 14.1865588,3.40023244 C14.1865588,3.79048245 14.0314206,4.16472489 13.7553187,4.44051978 L13.7112076,4.4846309 C13.3644457,4.83912754 13.2683713,5.36899271 13.4685964,5.82266832 L13.4685964,5.88148315 C13.6590596,6.32588111 14.0952369,6.61474022 14.5787264,6.61666854 L14.7037079,6.61666854 C15.5157712,6.61666854 16.1740787,7.27497597 16.1740787,8.08703933 C16.1740787,8.89910269 15.5157712,9.55741012 14.7037079,9.55741012 L14.6375412,9.55741012 C14.1540517,9.55933844 13.7178745,9.84819755 13.5274112,10.2925955 Z" id="Path"></path>
                    </g>
                </g>
            </g>
        </g>
    </g>
</svg>